<svg width="25" height="25" viewBox="0 0 25 25" fill="none" xmlns="http://www.w3.org/2000/svg">
<g clip-path="url(#clip0_398_729)">
<path d="M11.7666 0.029295C10.5947 0.180662 9.50586 0.566404 8.60742 1.15234C6.9082 2.25586 5.79004 3.91601 5.38965 5.93262C5.26758 6.54297 5.26758 7.91015 5.38965 8.52051C5.74121 10.2881 6.73242 11.9092 8.07519 12.9297L8.40723 13.1836L8.27051 13.2324C6.52246 13.8721 5.05762 14.8047 3.71484 16.1279C1.46387 18.3496 0.189453 21.1963 0.0185547 24.3799L-0.015625 25H0.96582H1.95215V24.7607C1.95215 23.9111 2.16699 22.7148 2.49414 21.709C3.53906 18.5205 6.02441 16.0352 9.22266 14.9902C11.415 14.2725 13.5879 14.2725 15.79 14.9951C18.1728 15.7764 20.1504 17.3437 21.5078 19.5312C22.2988 20.8105 22.8408 22.4365 22.9971 24.0186C23.0215 24.2969 23.0459 24.6289 23.0459 24.7607V25H24.0225H24.999V24.7168C24.999 23.4619 24.6475 21.7432 24.1103 20.3662C22.8408 17.1191 19.9893 14.375 16.6836 13.2129C16.6055 13.1885 16.6445 13.1396 16.8984 12.9492C18.2461 11.9385 19.2568 10.2832 19.6084 8.52051C19.7305 7.91015 19.7305 6.54297 19.6084 5.93262C19.0176 2.96875 16.8496 0.761717 13.9199 0.1416C13.4609 0.0488262 12.1719 -0.0195332 11.7666 0.029295ZM13.793 2.11914C14.9258 2.41211 16 3.12012 16.7031 4.04785C17.0449 4.49707 17.4551 5.35156 17.6113 5.93262C17.7236 6.36719 17.7383 6.50879 17.7383 7.22656C17.7383 7.94433 17.7236 8.08594 17.6113 8.52051C17.4551 9.10156 17.0449 9.95605 16.7031 10.4053C16 11.3281 14.9404 12.0312 13.793 12.3389C13.3584 12.4512 13.2168 12.4658 12.499 12.4658C11.7861 12.4658 11.6396 12.4512 11.2148 12.3389C10.6729 12.1924 9.96484 11.875 9.52539 11.5723C9.12012 11.3037 8.59766 10.8008 8.29492 10.4053C7.95312 9.95605 7.54297 9.10156 7.38672 8.52051C7.27441 8.08594 7.25977 7.94433 7.25977 7.22656C7.25977 6.50879 7.27441 6.36719 7.38672 5.93262C7.54297 5.35156 7.95312 4.49707 8.29492 4.04785C9.11035 2.97363 10.3848 2.21679 11.7471 2.00195C12.2549 1.92383 13.2461 1.98242 13.793 2.11914Z" fill="black"/>
</g>
<defs>
<clipPath id="clip0_398_729">
<rect width="25" height="25" fill="white"/>
</clipPath>
</defs>
</svg>
