<svg width="28" height="25" viewBox="0 0 28 25" fill="none" xmlns="http://www.w3.org/2000/svg">
<path d="M13.3174 1.15723C14.0815 0.898719 14.8373 0.918262 15.6865 1.51953C15.9869 1.75395 16.2785 2.00557 16.5918 2.27637L16.5928 2.27734C16.8187 2.47215 17.0482 2.65566 17.2666 2.83008V2.83105C17.5772 3.08109 17.8802 3.33771 18.2012 3.60645H18.2021L19.1348 4.375C19.3881 4.57806 19.6383 4.78872 19.8965 5.00781L19.8975 5.00879C20.1473 5.22036 20.3992 5.42452 20.6484 5.62402V5.625C20.9603 5.8767 21.2659 6.1346 21.5869 6.40332C21.8898 6.6568 22.2007 6.9155 22.5186 7.16992V7.1709C22.7722 7.37422 23.0227 7.58528 23.2812 7.80469H23.2822C23.532 8.01619 23.7841 8.22048 24.0332 8.41992V8.4209L24.9717 9.19922C25.2753 9.45331 25.5867 9.71196 25.9043 9.9668V9.96777C25.9523 10.0065 26.0004 10.046 26.0498 10.0859L26.0518 10.0869C26.1328 10.1521 26.2174 10.2202 26.3037 10.2881C26.7405 10.632 26.9102 10.8073 26.9902 11.0215C27.023 11.5046 26.9651 11.7342 26.7949 11.9521C26.5937 12.146 26.3737 12.2428 26.166 12.2549H25.8789C25.8197 12.2544 25.7651 12.2544 25.7041 12.2539L25.7002 12.2529C25.6415 12.2527 25.5839 12.2532 25.5234 12.2529C25.3804 12.2523 25.2369 12.2511 25.0938 12.25L24.082 12.2422L24.0859 13.2539C24.0861 13.3043 24.0857 13.3601 24.0859 13.4121C24.0908 14.6816 24.0944 15.9512 24.0967 17.2207C24.0978 17.8353 24.1 18.4502 24.1025 19.0654C24.1047 19.6 24.106 20.1346 24.1064 20.6689C24.1067 20.9532 24.1068 21.2389 24.1084 21.5244C24.1099 21.7887 24.1107 22.0534 24.1104 22.3184V22.3203C24.1104 22.4201 24.1105 22.5201 24.1113 22.6201V22.6211C24.1163 23.235 24.0533 23.479 23.8398 23.7168C23.6094 23.9112 23.4199 23.9798 23.1963 23.9795H22.7148C22.5296 23.9795 22.3438 23.9789 22.1572 23.9785H21.7676L20.748 23.9766L19.7051 23.9756C19.3555 23.9753 19.0059 23.9741 18.6562 23.9736C18.6544 23.4294 18.6533 22.885 18.6504 22.3408C18.6482 21.9349 18.6463 21.5291 18.6455 21.124C18.6448 20.768 18.644 20.4119 18.6416 20.0557C18.6404 19.8694 18.6396 19.6843 18.6396 19.5V19.499C18.6396 18.1616 18.5474 16.6481 17.3057 15.3545L17.2852 15.334L17.0273 15.1016C16.7677 14.887 16.497 14.7179 16.2178 14.5713H16.2188C16.1711 14.546 16.1233 14.5212 16.0742 14.4951L16.0449 14.4795L15.8369 14.3848C14.7923 13.9366 13.6275 13.8934 12.5547 14.2324L12.5215 14.2432L12.4883 14.2559C11.3366 14.7117 10.3229 15.4816 9.75684 16.7412L9.74609 16.7646L9.7373 16.7881C9.4416 17.5472 9.38011 18.2978 9.36816 18.9688L9.36621 19.6104L9.36328 20.1709C9.36107 20.5294 9.36009 20.8878 9.35938 21.2451C9.35851 21.6499 9.35669 22.0552 9.35449 22.4619C9.35178 22.9671 9.34937 23.4725 9.34766 23.9775C8.92769 23.9797 8.50778 23.9831 8.08789 23.9844L7.03711 23.9893C6.7022 23.9916 6.36684 23.9926 6.03125 23.9932H6.03027C5.90021 23.9936 5.76981 23.9949 5.63965 23.9961C5.46406 23.9976 5.28694 23.9981 5.10742 23.998H5.09277C5.02767 23.999 5.00854 23.9981 4.94922 23.999C4.61891 23.9961 4.36863 23.8962 4.07422 23.6357C3.9986 23.5519 3.95197 23.4542 3.92383 23.293C3.90554 23.1882 3.8976 23.0779 3.89453 22.9463V22.1602L3.89746 21.3496L3.89941 20.4912C3.90009 19.954 3.9021 19.4161 3.9043 18.8779C3.90675 18.2635 3.90711 17.6493 3.9082 17.0361C3.91048 15.7757 3.91505 14.5146 3.91992 13.2539L3.92383 12.2256L2.89551 12.25C2.86923 12.2506 2.85606 12.2516 2.84277 12.252L2.78906 12.2529C2.63256 12.2562 2.47533 12.2577 2.31348 12.2598L2.30176 12.2607C2.2411 12.2622 2.20058 12.2622 2.13965 12.2637C1.72249 12.2663 1.47443 12.1793 1.25977 11.9922C1.13325 11.857 1.08148 11.761 1.05371 11.6816C1.02214 11.5913 0.998727 11.4605 1 11.2266C1.00708 11.0537 1.03901 10.957 1.07617 10.8848C1.11693 10.8056 1.19116 10.703 1.35059 10.5518C1.47335 10.4475 1.60104 10.3444 1.73535 10.2393L1.73633 10.2383C1.92129 10.0931 2.09944 9.94605 2.27051 9.80273C2.3139 9.76648 2.31608 9.76453 2.36035 9.72754C2.45139 9.65146 2.54306 9.57595 2.63379 9.5C3.01423 9.18151 3.39242 8.86798 3.77441 8.56152L3.77734 8.55859C4.07578 8.31705 4.36991 8.07027 4.65332 7.83301C5.03382 7.51447 5.41287 7.20104 5.79492 6.89453L5.79785 6.8916C6.09639 6.64997 6.39033 6.40238 6.67383 6.16504C7.0541 5.84669 7.43262 5.53387 7.81445 5.22754L7.81836 5.22461C8.11684 4.98302 8.40992 4.73534 8.69336 4.49805C9.07383 4.17953 9.45293 3.86703 9.83496 3.56055L9.83789 3.55762C10.1364 3.31598 10.4304 3.06839 10.7139 2.83105C11.6142 2.07733 12.4695 1.44413 13.3174 1.15723Z" fill="white" stroke="black" stroke-width="2"/>
</svg>
